HIERARCHY
ROOT hip
{
	OFFSET 0.000000 0.000000 0.000000
	CHANNELS 6 Xposition Yposition Zposition Xrotation Zrotation Yrotation 
	JOINT abdomen
	{
		OFFSET 0.000000 3.422050 0.000000
		CHANNELS 3 Xrotation Zrotation Yrotation 
		JOINT chest
		{
			OFFSET 0.000000 8.486693 -0.684411
			CHANNELS 3 Xrotation Zrotation Yrotation 
			JOINT neck
			{
				OFFSET 0.000000 10.266162 -0.273764
				CHANNELS 3 Xrotation Zrotation Yrotation 
				JOINT head
				{
					OFFSET 0.000000 3.148285 0.000000
					CHANNELS 3 Xrotation Zrotation Yrotation 
					End Site
					{
						OFFSET 0.000000 3.148289 0.000000
					}
				}
			}
			JOINT lCollar
			{
				OFFSET 3.422053 6.707223 -0.821293
				CHANNELS 3 Yrotation Zrotation Xrotation 
				JOINT lShldr
				{
					OFFSET 3.285171 0.000000 0.000000
					CHANNELS 3 Zrotation Yrotation Xrotation 
					JOINT lForeArm
					{
						OFFSET 10.129278 0.000000 0.000000
						CHANNELS 3 Yrotation Zrotation Xrotation 
						JOINT lHand
						{
							OFFSET 8.486692 0.000000 0.000000
							CHANNELS 3 Zrotation Yrotation Xrotation 
							End Site
							{
								OFFSET 4.106464 0.000000 0.000000
							}
						}
					}
				}
			}
			JOINT rCollar
			{
				OFFSET -3.558935 6.707223 -0.821293
				CHANNELS 3 Yrotation Zrotation Xrotation 
				JOINT rShldr
				{
					OFFSET -3.148289 0.000000 0.000000
					CHANNELS 3 Zrotation Yrotation Xrotation 
					JOINT rForeArm
					{
						OFFSET -10.266159 0.000000 0.000000
						CHANNELS 3 Yrotation Zrotation Xrotation 
						JOINT rHand
						{
							OFFSET -8.349810 0.000000 0.000000
							CHANNELS 3 Zrotation Yrotation Xrotation 
							End Site
							{
								OFFSET -4.106464 0.000000 0.000000
							}
						}
					}
				}
			}
		}
	}
	JOINT lThigh
	{
		OFFSET 5.338403 -1.642589 1.368821
		CHANNELS 3 Xrotation Zrotation Yrotation 
		JOINT lShin
		{
			OFFSET -2.053232 -20.121670 0.000000
			CHANNELS 3 Xrotation Zrotation Yrotation 
			JOINT lFoot
			{
				OFFSET 0.000000 -19.300380 -1.231939
				CHANNELS 3 Xrotation Yrotation Zrotation 
				End Site
				{
					OFFSET 0.000000 -2.463878 4.653993
				}
			}
		}
	}
	JOINT rThigh
	{
		OFFSET -5.338403 -1.642589 1.368821
		CHANNELS 3 Xrotation Zrotation Yrotation 
		JOINT rShin
		{
			OFFSET 2.053232 -20.121670 0.000000
			CHANNELS 3 Xrotation Zrotation Yrotation 
			JOINT rFoot
			{
				OFFSET 0.000000 -19.300380 -1.231939
				CHANNELS 3 Xrotation Yrotation Zrotation 
				End Site
				{
					OFFSET 0.000000 -2.463878 4.653993
				}
			}
		}
	}
}
MOTION
Frames: 19
Frame Time: 0.033264
-2.976697 20.005016 4.364741 33.025372 0.055234 -178.183670 33.418072 -2.121205 -8.133933 -3.863763 -2.355791 -0.635332 -13.119251 -15.001583 -10.000359 -15.549776 -14.155703 -10.144584 -13.788207 -15.297143 -21.424257 -1.741815 -27.666912 -23.148035 -65.223213 -27.174812 -17.637688 -50.023365 15.076977 -26.535582 7.307757 9.975465 -23.874687 0.762478 45.287880 -21.404949 82.986984 21.919556 -19.706703 21.705532 5.018463 -37.001461 -111.399345 40.974491 -43.299015 115.866158 1.884587 -48.112801 36.038227 31.969837 0.011776 32.548496 -13.940261 0.386784 91.561295 3.416481 43.833076 55.530167 -35.427387 9.614179 
-2.976697 20.045866 4.341012 32.549370 0.054984 -178.186066 33.418072 -2.121205 -8.133933 -5.107413 -2.355843 -0.635330 -13.167095 -15.001578 -10.000359 -15.738170 -14.186475 -9.979175 -13.354785 -15.859138 -20.840710 -1.741815 -27.666912 -23.148035 -66.146568 -27.357908 -18.064648 -50.031860 15.718255 -26.779463 7.024608 10.395141 -23.088976 0.762478 45.287880 -21.404949 83.340935 21.946384 -19.840439 21.762161 4.843692 -36.874615 -111.506355 40.790138 -43.316177 115.866158 1.884587 -48.112801 34.551067 31.819885 0.727191 32.122337 -13.903922 0.407991 91.561295 3.416481 43.833076 55.530167 -35.427387 9.614179 
-2.976697 20.086718 4.317283 32.073399 0.054714 -178.188461 33.418072 -2.121205 -8.133933 -6.350474 -2.355896 -0.635327 -13.214938 -15.001574 -10.000359 -15.926764 -14.216737 -9.813572 -12.914289 -16.416708 -20.251221 -1.741815 -27.666912 -23.148035 -67.072739 -27.534821 -18.495489 -50.043228 16.359406 -27.024200 6.735309 10.810843 -22.300278 0.762478 45.287880 -21.404949 83.695007 21.972452 -19.974379 21.818388 4.668800 -36.747967 -111.612991 40.605755 -43.332836 115.866158 1.884587 -48.112801 33.069473 31.654318 1.436221 31.696281 -13.867431 0.428915 91.561295 3.416481 43.833076 55.530167 -35.427387 9.614179 
-2.976697 20.127567 4.293553 31.597481 0.054424 -178.190872 33.418072 -2.121205 -8.133933 -7.592661 -2.355948 -0.635323 -13.262784 -15.001570 -10.000359 -16.115547 -14.246480 -9.647775 -12.466681 -16.969696 -19.655750 -1.741815 -27.666912 -23.148035 -68.001564 -27.705462 -18.930042 -50.057499 17.000366 -27.269840 6.439906 11.222437 -21.508631 0.762478 45.287880 -21.404949 84.049187 21.997751 -20.108500 21.874220 4.493789 -36.621544 -111.719261 40.421368 -43.348995 115.866158 1.884587 -48.112801 31.594242 31.473389 2.138168 31.270351 -13.830795 0.449553 91.561295 3.416481 43.833076 55.530167 -35.427387 9.614179 
-2.976697 20.168419 4.269824 31.121628 0.054115 -178.193253 33.418072 -2.121205 -8.133933 -8.833676 -2.356001 -0.635318 -13.310626 -15.001563 -10.000357 -16.304520 -14.275704 -9.481789 -12.011930 -17.517937 -19.054241 -1.741815 -27.666912 -23.148035 -68.932831 -27.869755 -19.368141 -50.074696 17.641079 -27.516432 6.138446 11.629781 -20.714071 0.762478 45.287880 -21.404949 84.403473 22.022276 -20.242804 21.929642 4.318661 -36.495319 -111.825195 40.236965 -43.364689 115.866158 1.884587 -48.112801 30.126127 31.277359 2.832342 30.844540 -13.794015 0.469906 91.561295 3.416481 43.833076 55.530167 -35.427387 9.614179 
-2.976697 20.209269 4.246095 30.645847 0.053785 -178.195648 33.418072 -2.121205 -8.133933 -10.073234 -2.356053 -0.635311 -13.358468 -15.001558 -10.000357 -16.493679 -14.304410 -9.315620 -11.550014 -18.061274 -18.446669 -1.741815 -27.666912 -23.148035 -69.866409 -28.027639 -19.809631 -50.094860 18.281490 -27.764040 5.830979 12.032732 -19.916628 0.762478 45.287880 -21.404949 84.757851 22.046028 -20.377279 21.984661 4.143417 -36.369289 -111.930740 40.052532 -43.379860 115.866158 1.884587 -48.112801 28.665833 31.066498 3.518091 30.418869 -13.757091 0.489970 91.561295 3.416483 43.833076 55.530167 -35.427387 9.614179 
-2.976697 20.250120 4.222366 30.170176 0.053436 -178.198044 33.418072 -2.121205 -8.133933 -11.311052 -2.356105 -0.635304 -13.406314 -15.001554 -10.000357 -16.683020 -14.332594 -9.149264 -11.080899 -18.599545 -17.832991 -1.741815 -27.666912 -23.148035 -70.802086 -28.179049 -20.254330 -50.118000 18.921526 -28.012703 5.517563 12.431164 -19.116358 0.762478 45.287880 -21.404949 85.112328 22.069008 -20.511927 22.039282 3.968062 -36.243465 -112.035957 39.868095 -43.394562 115.866158 1.884587 -48.112801 27.214052 30.841129 4.194807 29.993355 -13.720036 0.509746 91.561295 3.416481 43.833076 55.530167 -35.427387 9.614179 
-2.976697 20.290970 4.198637 29.694611 0.053067 -178.200409 33.418072 -2.121205 -8.133933 -12.546837 -2.356156 -0.635295 -13.454160 -15.001550 -10.000357 -16.872545 -14.360259 -8.982733 -10.604568 -19.132582 -17.213165 -1.741815 -27.666912 -23.148035 -71.739639 -28.323906 -20.702053 -50.144180 19.561153 -28.262497 5.198258 12.824937 -18.313307 0.762478 45.287880 -21.404949 85.466850 22.091208 -20.646719 22.093502 3.792596 -36.117844 -112.140823 39.683647 -43.408791 115.866158 1.884587 -48.112801 25.771446 30.601595 4.861898 29.567991 -13.682837 0.529231 91.561295 3.416481 43.833076 55.530167 -35.427387 9.614179 
-2.976697 20.331821 4.174908 29.219185 0.052679 -178.202789 33.418072 -2.121205 -8.133933 -13.780314 -2.356207 -0.635286 -13.502004 -15.001544 -10.000358 -17.062244 -14.387398 -8.816022 -10.121010 -19.660242 -16.587181 -1.741815 -27.666912 -23.148035 -72.678917 -28.462172 -21.152628 -50.173409 20.200296 -28.513466 4.873127 13.213923 -17.507523 0.762478 45.287880 -21.404949 85.821434 22.112633 -20.781666 22.147320 3.617022 -35.992416 -112.245331 39.499176 -43.422527 115.866158 1.884587 -48.112801 24.338619 30.348238 5.518823 29.142809 -13.645515 0.548423 91.561295 3.416483 43.833076 55.530167 -35.427387 9.614179 
-2.976697 20.372673 4.151178 28.743902 0.052271 -178.205170 33.418072 -2.121205 -8.133933 -15.011202 -2.356259 -0.635275 -13.549849 -15.001539 -10.000358 -17.252110 -14.414008 -8.649137 -9.630206 -20.182352 -15.955005 -1.741815 -27.666912 -23.148035 -73.619698 -28.593792 -21.605862 -50.205730 20.838900 -28.765659 4.542240 13.597993 -16.699066 0.762478 45.287880 -21.404949 86.176079 22.133282 -20.916750 22.200747 3.441344 -35.867199 -112.349541 39.314720 -43.435825 115.866158 1.884587 -48.112801 22.916161 30.081444 6.165072 28.717808 -13.608064 0.567322 91.561295 3.416481 43.833076 55.530167 -35.427387 9.614179 
-2.976697 20.413523 4.127449 28.268784 0.051843 -178.207550 33.418072 -2.121205 -8.133933 -16.239223 -2.356310 -0.635263 -13.597691 -15.001534 -10.000359 -17.442154 -14.440094 -8.482083 -9.132154 -20.698765 -15.316621 -1.741815 -27.666912 -23.148035 -74.561760 -28.718716 -22.061560 -50.241184 21.476908 -29.019159 4.205668 13.977014 -15.887990 0.762478 45.287880 -21.404949 86.530785 22.153156 -21.051973 22.253767 3.265562 -35.742161 -112.453377 39.130241 -43.448624 115.866158 1.884587 -48.112801 21.504610 29.801605 6.800173 28.293005 -13.570487 0.585928 91.561295 3.416481 43.833076 55.530167 -35.427387 9.614179 
-2.976697 20.454374 4.103720 27.793852 0.051396 -178.209915 33.418072 -2.121205 -8.133933 -17.464109 -2.356359 -0.635250 -13.645535 -15.001527 -10.000358 -17.632366 -14.465658 -8.314866 -8.626850 -21.209320 -14.672018 -1.741815 -27.666912 -23.148035 -75.504944 -28.836905 -22.519537 -50.279823 22.114269 -29.274017 3.863490 14.350871 -15.074361 0.762478 45.287880 -21.404949 86.885521 22.172247 -21.187321 22.306393 3.089679 -35.617325 -112.556870 38.945751 -43.460957 115.866158 1.884587 -48.112801 20.104465 29.509140 7.423702 27.868402 -13.532786 0.604237 91.561295 3.416479 43.833073 55.530167 -35.427387 9.614179 
-2.976697 20.495224 4.079991 27.319105 0.050930 -178.212280 33.418072 -2.121205 -8.133933 -18.685602 -2.356410 -0.635236 -13.693379 -15.001524 -10.000358 -17.822741 -14.490685 -8.147481 -8.114293 -21.713850 -14.021180 -1.741815 -27.666912 -23.148035 -76.448982 -28.948322 -22.979586 -50.321667 22.750914 -29.530289 3.515788 14.719440 -14.258250 0.762478 45.287880 -21.404949 87.240288 22.190565 -21.322784 22.358622 2.913698 -35.492683 -112.660057 38.761272 -43.472839 115.866158 1.884587 -48.112801 18.716190 29.204451 8.035256 27.444023 -13.494967 0.622251 91.561295 3.416481 43.833076 55.530167 -35.427387 9.614179 
-2.976697 20.536076 4.056262 26.844576 0.050444 -178.214630 33.418072 -2.121205 -8.133933 -19.903425 -2.356459 -0.635221 -13.741226 -15.001520 -10.000359 -18.013271 -14.515183 -7.979936 -7.594494 -22.212214 -13.364109 -1.741815 -27.666912 -23.148035 -77.393684 -29.052935 -23.441505 -50.366764 23.386795 -29.788044 3.162648 15.082606 -13.439730 0.762478 45.287880 -21.404949 87.595032 22.208096 -21.458349 22.410456 2.737621 -35.368225 -112.762909 38.576786 -43.484261 115.866158 1.884587 -48.112801 17.340214 28.888008 8.634494 27.019871 -13.457032 0.639966 91.561295 3.416479 43.833073 55.530167 -35.427387 9.614179 
-2.976697 20.576925 4.032533 26.370275 0.049939 -178.216980 33.418072 -2.121205 -8.133933 -21.117331 -2.356508 -0.635206 -13.789068 -15.001513 -10.000357 -18.203960 -14.539149 -7.812235 -7.067470 -22.704256 -12.700813 -1.741815 -27.666912 -23.148035 -78.338844 -29.150736 -23.905102 -50.415173 24.021843 -30.047348 2.804160 15.440249 -12.618872 0.762478 45.287880 -21.404949 87.949806 22.224838 -21.594011 22.461893 2.561451 -35.243965 -112.865463 38.392319 -43.495239 115.866158 1.884587 -48.112801 15.976921 28.560234 9.221092 26.595963 -13.418989 0.657383 91.561295 3.416481 43.833076 55.530167 -35.427387 9.614179 
-2.976697 20.617777 4.008803 25.896221 0.049414 -178.219315 33.418072 -2.121205 -8.133933 -22.327055 -2.356557 -0.635189 -13.836909 -15.001510 -10.000357 -18.394808 -14.562583 -7.644380 -6.533235 -23.189819 -12.031294 -1.741815 -27.666912 -23.148035 -79.284241 -29.241690 -24.370167 -50.466927 24.656019 -30.308268 2.440422 15.792267 -11.795765 0.762478 45.287880 -21.404949 88.304581 22.240810 -21.729778 22.512936 2.385189 -35.119892 -112.967682 38.207836 -43.505760 115.866158 1.884587 -48.112801 14.626654 28.221594 9.794777 26.172304 -13.380836 0.674501 91.561295 3.416481 43.833076 55.530167 -35.427387 9.614179 
-2.976697 20.658627 3.985074 25.422424 0.048871 -178.221664 33.418072 -2.121205 -8.133933 -23.532366 -2.356604 -0.635171 -13.884753 -15.001505 -10.000358 -18.585802 -14.585484 -7.476374 -5.991819 -23.668756 -11.355572 -1.741815 -27.666912 -23.148035 -80.229668 -29.325796 -24.836500 -50.522076 25.289248 -30.570868 2.071531 16.138540 -10.970487 0.762478 45.287880 -21.404949 88.659332 22.256001 -21.865625 22.563578 2.208838 -34.996002 -113.069611 38.023365 -43.515842 115.866158 1.884587 -48.112801 13.289721 27.872551 10.355310 25.748909 -13.342574 0.691318 91.561295 3.416481 43.833076 55.530167 -35.427387 9.614179 
-2.976697 20.699478 3.961345 24.948906 0.048309 -178.224014 33.418072 -2.121205 -8.133933 -24.733011 -2.356652 -0.635152 -13.932597 -15.001500 -10.000358 -18.776943 -14.607847 -7.308221 -5.443253 -24.140923 -10.673666 -1.741816 -27.666910 -23.148035 -81.174889 -29.403028 -25.303877 -50.580685 25.921482 -30.835232 1.697593 16.478981 -10.143136 0.762478 45.287880 -21.404949 89.014061 22.270399 -22.001539 22.613838 2.032401 -34.872307 -113.171219 37.838905 -43.525478 115.866158 1.884587 -48.112801 11.966410 27.513586 10.902491 25.325787 -13.304214 0.707834 91.561295 3.416481 43.833076 55.530167 -35.427387 9.614179 
-2.976697 20.740330 3.937616 24.475677 0.047727 -178.226334 33.418072 -2.121205 -8.133933 -25.928768 -2.356699 -0.635132 -13.980437 -15.001492 -10.000356 -18.968231 -14.629675 -7.139925 -4.887576 -24.606173 -9.985609 -1.741815 -27.666912 -23.148035 -82.119667 -29.473404 -25.772100 -50.642769 26.552656 -31.101404 1.318716 16.813478 -9.313795 0.762478 45.287880 -21.404949 89.368759 22.284021 -22.137526 22.663698 1.855878 -34.748787 -113.272530 37.654446 -43.534683 115.866158 1.884587 -48.112801 10.656942 27.145159 11.436154 24.902952 -13.265752 0.724048 91.561295 3.416481 43.833076 55.530167 -35.427387 9.614179 
